<svg width="17" height="17" viewBox="0 0 17 17" fill="none" xmlns="http://www.w3.org/2000/svg">
<path d="M16.1211 2.48046C16.0879 2.37365 16.0188 2.28581 15.9288 2.23798L12.8514 0.609596C12.1968 0.355415 11.5299 0.154637 10.8565 0.00788835C10.8328 0.00256682 10.8092 0 10.786 0C10.6193 0 10.47 0.131911 10.4328 0.325364C10.187 1.56622 9.22867 2.49523 8.07054 2.49523C6.91247 2.49523 5.95414 1.56628 5.7083 0.325364C5.67072 0.131911 5.52172 0 5.35514 0C5.33187 0 5.30827 0.00256682 5.28457 0.00788835C4.61124 0.154637 3.94434 0.355415 3.28871 0.609596L0.212435 2.23792C0.121878 2.28575 0.0522942 2.37359 0.0206702 2.48039C-0.0120462 2.58845 -0.00614746 2.70509 0.0399504 2.80701L1.37592 5.82914C1.43845 5.97257 1.56566 6.05865 1.70024 6.05865C1.73498 6.05865 1.77021 6.05289 1.80494 6.04093L3.28876 5.53683V15.6772C3.28876 15.9074 3.45267 16.0952 3.6541 16.0952H12.4871C12.688 16.0952 12.8515 15.9074 12.8515 15.6772V5.53695L14.3363 6.04106C14.371 6.05302 14.4062 6.05878 14.4409 6.05878C14.5752 6.05878 14.7019 5.97269 14.7653 5.82926L16.1018 2.80714C16.1468 2.70515 16.1532 2.58852 16.1211 2.48046Z" fill="#121212"/>
</svg>
